<svg xmlns="http://www.w3.org/2000/svg" xmlns:xlink="http://www.w3.org/1999/xlink" width="14.15" height="14.15" viewBox="0 0 14.15 14.15">
  <defs>
    <linearGradient id="linear-gradient" x1="0.5" y1="-0.097" x2="0.5" y2="1.298" gradientUnits="objectBoundingBox">
      <stop offset="0" stop-color="#3c21f0"/>
      <stop offset="1" stop-color="#00acea"/>
    </linearGradient>
  </defs>
  <g id="pills" transform="translate(-42.18 -37.173)">
    <path id="パス_19" data-name="パス 19" d="M51.975,46.95a.393.393,0,0,0,.051-.064l3.185-3.2a3.818,3.818,0,1,0-5.4-5.4l-3.173,3.174a.382.382,0,0,0-.148.148l-3.2,3.2a3.826,3.826,0,0,0,5.42,5.4l0,0L51.911,47A.391.391,0,0,0,51.975,46.95Zm-3.812,2.7a3.042,3.042,0,1,1-4.315-4.29l2.993-2.993,4.3,4.3ZM47.4,41.816l2.97-2.97a3.034,3.034,0,1,1,4.291,4.292l-2.966,2.975Z" fill="url(#linear-gradient)"/>
    <path id="パス_20" data-name="パス 20" d="M232.813,107.711l-1.354,1.333a.392.392,0,1,0,.55.558l1.354-1.333a.392.392,0,0,0-.55-.558Z" transform="translate(-181.75 -67.665)" fill="url(#linear-gradient)"/>
  </g>
</svg>
